<svg width="128" height="128" viewBox="0 0 128 128" fill="none" xmlns="http://www.w3.org/2000/svg">
<path d="M86.346 10.668H41.6527C22.2393 10.668 10.666 22.2413 10.666 41.6546V86.348C10.666 101.335 17.546 111.628 29.6527 115.521C33.1727 116.748 37.226 117.335 41.6527 117.335H86.346C90.7727 117.335 94.826 116.748 98.346 115.521C110.453 111.628 117.333 101.335 117.333 86.348V41.6546C117.333 22.2413 105.759 10.668 86.346 10.668ZM109.333 86.348C109.333 97.7613 104.853 104.961 95.8393 107.948C90.666 97.7613 78.3993 90.508 63.9993 90.508C49.5993 90.508 37.386 97.708 32.1593 107.948H32.106C23.1993 105.068 18.666 97.8146 18.666 86.4013V41.6546C18.666 26.6146 26.6127 18.668 41.6527 18.668H86.346C101.386 18.668 109.333 26.6146 109.333 41.6546V86.348Z" fill="#EA033A"/>
<path d="M63.9986 42.668C53.4386 42.668 44.9053 51.2013 44.9053 61.7613C44.9053 72.3213 53.4386 80.908 63.9986 80.908C74.5586 80.908 83.0919 72.3213 83.0919 61.7613C83.0919 51.2013 74.5586 42.668 63.9986 42.668Z" fill="#EA033A"/>
</svg>
